<svg width="148" height="50" viewBox="0 0 148 50" fill="none" xmlns="http://www.w3.org/2000/svg">
<path d="M20.5505 10.3705L20.7855 20.0262H19.9097C19.4967 17.6052 18.4784 15.6612 16.8549 14.1943C15.2456 12.7132 13.501 11.9727 11.6211 11.9727C10.1685 11.9727 9.01489 12.3643 8.1604 13.1476C7.32015 13.9166 6.90002 14.8067 6.90002 15.8179C6.90002 16.4587 7.04956 17.0284 7.34863 17.5269C7.76164 18.1962 8.42387 18.8584 9.33533 19.5135C10.0047 19.9835 11.5499 20.8167 13.9709 22.0129C17.3604 23.6792 19.6462 25.2529 20.8282 26.734C21.9961 28.2151 22.58 29.9099 22.58 31.8182C22.58 34.2393 21.6329 36.3257 19.7388 38.0774C17.8589 39.8149 15.4663 40.6836 12.561 40.6836C11.6496 40.6836 10.788 40.591 9.9762 40.4059C9.16443 40.2207 8.14616 39.8718 6.92139 39.3591C6.23779 39.0743 5.67525 38.9319 5.23376 38.9319C4.86348 38.9319 4.47184 39.0743 4.05884 39.3591C3.64583 39.644 3.31116 40.0783 3.05481 40.6622H2.2644V29.7247H3.05481C3.68144 32.8009 4.88485 35.1508 6.66504 36.7743C8.45947 38.3836 10.3892 39.1882 12.4542 39.1882C14.0493 39.1882 15.3168 38.7539 16.2567 37.8851C17.2109 37.0164 17.688 36.0052 17.688 34.8517C17.688 34.1681 17.5028 33.5059 17.1326 32.865C16.7765 32.2241 16.2282 31.6189 15.4877 31.0492C14.7471 30.4653 13.4369 29.7105 11.557 28.7848C8.92232 27.4888 7.0282 26.3851 5.87463 25.4736C4.72107 24.5622 3.83097 23.5439 3.20435 22.4188C2.59196 21.2937 2.28577 20.0547 2.28577 18.7018C2.28577 16.3947 3.13314 14.4293 4.82788 12.8058C6.52262 11.1823 8.65885 10.3705 11.2366 10.3705C12.1765 10.3705 13.088 10.4844 13.9709 10.7123C14.6403 10.8832 15.4521 11.2036 16.4062 11.6736C17.3747 12.1293 18.0511 12.3572 18.4357 12.3572C18.8059 12.3572 19.0979 12.2432 19.3115 12.0154C19.5251 11.7875 19.7245 11.2392 19.9097 10.3705H20.5505ZM36.38 12.699V24.5978H37.2131C38.4949 24.5978 39.5416 24.4055 40.3534 24.021C41.1652 23.6365 41.8488 22.9885 42.4042 22.077C42.9738 21.1656 43.3441 19.9337 43.515 18.3813H44.2627V32.9291H43.515C43.2444 30.1805 42.5039 28.3718 41.2933 27.5031C40.097 26.6201 38.737 26.1786 37.2131 26.1786H36.38V35.0439C36.38 36.5251 36.4583 37.4508 36.615 37.821C36.7859 38.1913 37.1063 38.5189 37.5763 38.8037C38.0605 39.0743 38.7085 39.2096 39.5203 39.2096H40.4816V40H25.3357V39.2096H26.297C27.1372 39.2096 27.8137 39.0601 28.3264 38.761C28.6967 38.5616 28.9815 38.2198 29.1809 37.7356C29.3376 37.3938 29.4159 36.4966 29.4159 35.0439V15.9888C29.4159 14.5076 29.3376 13.5819 29.1809 13.2117C29.0243 12.8414 28.7038 12.521 28.2196 12.2504C27.7496 11.9655 27.1088 11.8231 26.297 11.8231H25.3357V11.0327H49.7742V19.3427H48.8983C48.6989 17.3916 48.1862 15.946 47.3602 15.0061C46.5485 14.0662 45.3664 13.4039 43.8141 13.0194C42.9596 12.8058 41.3788 12.699 39.0717 12.699H36.38ZM67.1204 39.2096V40H51.9745V39.2096H52.9358C53.776 39.2096 54.4525 39.0601 54.9652 38.761C55.3355 38.5616 55.6203 38.2198 55.8197 37.7356C55.9764 37.3938 56.0547 36.4966 56.0547 35.0439V15.9888C56.0547 14.5076 55.9764 13.5819 55.8197 13.2117C55.663 12.8414 55.3426 12.521 54.8584 12.2504C54.3884 11.9655 53.7476 11.8231 52.9358 11.8231H51.9745V11.0327H67.1204V11.8231H66.1591C65.3188 11.8231 64.6423 11.9727 64.1296 12.2717C63.7594 12.4711 63.4674 12.8129 63.2538 13.2971C63.0971 13.6389 63.0188 14.5361 63.0188 15.9888V35.0439C63.0188 36.5251 63.0971 37.4508 63.2538 37.821C63.4247 38.1913 63.7451 38.5189 64.2151 38.8037C64.6993 39.0743 65.3473 39.2096 66.1591 39.2096H67.1204Z" fill="#0092F2"/>
<path d="M94.7319 17.8815V23.3435H94.2786C93.9378 21.9179 93.3025 20.8256 92.3728 20.0663C91.4431 19.3071 90.3894 18.9274 89.2118 18.9274C88.2279 18.9274 87.3253 19.2102 86.5041 19.7758C85.6829 20.3413 85.0825 21.0812 84.7029 21.9954C84.2148 23.1653 83.9707 24.4668 83.9707 25.9001C83.9707 27.3101 84.1489 28.5962 84.5053 29.7583C84.8617 30.9127 85.4195 31.7881 86.1787 32.3847C86.938 32.9735 87.9219 33.2679 89.1305 33.2679C90.1222 33.2679 91.0286 33.0509 91.8498 32.6171C92.6788 32.1832 93.5504 31.4356 94.4646 30.3742V31.7339C93.5814 32.6558 92.6594 33.326 91.6988 33.7443C90.7458 34.1549 89.6302 34.3603 88.3519 34.3603C86.6707 34.3603 85.1754 34.0232 83.8661 33.3492C82.5646 32.6752 81.5574 31.7068 80.8447 30.4439C80.1396 29.1811 79.7871 27.8369 79.7871 26.4114C79.7871 24.9084 80.1784 23.4829 80.9609 22.1349C81.7511 20.7868 82.8125 19.7409 84.145 18.9972C85.4853 18.2534 86.907 17.8815 88.41 17.8815C89.5179 17.8815 90.6877 18.1217 91.9196 18.6021C92.6323 18.881 93.0855 19.0204 93.2792 19.0204C93.5271 19.0204 93.7402 18.9313 93.9184 18.7531C94.1043 18.5672 94.2244 18.2767 94.2786 17.8815H94.7319ZM105.946 29.5143H100.38L99.7173 31.0482C99.5004 31.5596 99.3919 31.9818 99.3919 32.3149C99.3919 32.7565 99.5701 33.0819 99.9265 33.2911C100.136 33.4151 100.651 33.508 101.472 33.57V34H96.231V33.57C96.7965 33.4848 97.2614 33.2524 97.6255 32.8728C97.9896 32.4854 98.439 31.6913 98.9736 30.4904L104.61 17.9164H104.831L110.513 30.8391C111.056 32.0632 111.501 32.834 111.85 33.1517C112.113 33.3918 112.485 33.5313 112.965 33.57V34H105.342V33.57H105.656C106.268 33.57 106.698 33.4848 106.946 33.3144C107.116 33.1904 107.201 33.0122 107.201 32.7798C107.201 32.6403 107.178 32.497 107.132 32.3498C107.116 32.2801 107 31.9896 106.783 31.4782L105.946 29.5143ZM105.551 28.6543L103.204 23.2272L100.786 28.6543H105.551ZM119.566 26.8182V31.2342C119.566 32.0864 119.616 32.6248 119.717 32.8495C119.826 33.0664 120.012 33.2408 120.275 33.3725C120.538 33.5042 121.03 33.57 121.751 33.57V34H113.686V33.57C114.414 33.57 114.906 33.5042 115.162 33.3725C115.425 33.233 115.607 33.0548 115.708 32.8379C115.816 32.621 115.871 32.0864 115.871 31.2342V21.0076C115.871 20.1554 115.816 19.6208 115.708 19.4039C115.607 19.1792 115.425 19.001 115.162 18.8693C114.898 18.7376 114.406 18.6718 113.686 18.6718V18.2418H121.007C122.913 18.2418 124.308 18.3735 125.191 18.6369C126.074 18.9003 126.794 19.3884 127.352 20.1012C127.91 20.8062 128.189 21.6352 128.189 22.5881C128.189 23.7502 127.771 24.7109 126.934 25.4701C126.399 25.9505 125.652 26.3107 124.691 26.5509L128.48 31.885C128.975 32.5745 129.328 33.0045 129.537 33.1749C129.855 33.4151 130.223 33.5468 130.641 33.57V34H125.679L120.6 26.8182H119.566ZM119.566 19.0901V25.9931H120.229C121.305 25.9931 122.111 25.8962 122.646 25.7025C123.18 25.5011 123.599 25.1447 123.901 24.6334C124.211 24.1143 124.366 23.4403 124.366 22.6113C124.366 21.4105 124.083 20.5234 123.517 19.9501C122.959 19.3768 122.057 19.0901 120.81 19.0901H119.566ZM136.928 19.1482V25.5631H137.242C138.241 25.5631 138.966 25.2493 139.415 24.6218C139.864 23.9942 140.151 23.0684 140.275 21.8443H140.717V30.0953H140.275C140.182 29.1966 139.984 28.4606 139.682 27.8873C139.388 27.314 139.043 26.9305 138.648 26.7368C138.253 26.5354 137.68 26.4347 136.928 26.4347V30.8739C136.928 31.7416 136.963 32.2723 137.033 32.466C137.11 32.6597 137.25 32.8185 137.451 32.9425C137.652 33.0664 137.978 33.1284 138.427 33.1284H139.368C140.84 33.1284 142.018 32.7875 142.901 32.1058C143.792 31.424 144.431 30.3858 144.819 28.9913H145.249L144.54 34H130.92V33.57H131.443C131.9 33.57 132.268 33.4887 132.547 33.326C132.748 33.2175 132.903 33.0316 133.012 32.7682C133.097 32.5822 133.14 32.0941 133.14 31.3039V20.9379C133.14 20.2251 133.12 19.7874 133.081 19.6247C133.004 19.3535 132.861 19.1444 132.651 18.9972C132.357 18.7802 131.954 18.6718 131.443 18.6718H130.92V18.2418H144.11V22.9019H143.668C143.444 21.763 143.126 20.9456 142.715 20.4498C142.312 19.954 141.739 19.5898 140.995 19.3574C140.562 19.218 139.748 19.1482 138.555 19.1482H136.928Z" fill="#022339"/>
<line x1="76.8241" y1="7.5" x2="147.583" y2="7.5" stroke="#EC223B"/>
<line x1="76.8241" y1="42.5" x2="147.583" y2="42.5" stroke="#EC223B"/>
</svg>
