<svg width="75" height="63" viewBox="0 0 75 63" fill="none" xmlns="http://www.w3.org/2000/svg">
<path d="M56.9674 0.137695V62.6516C67.3247 56.2399 74.2296 44.403 74.2296 31.333C74.2296 18.263 67.3247 6.67268 56.9674 0.137695ZM17.5109 0.137695C7.15355 6.67268 0.248657 18.5096 0.248657 31.4563C0.248657 44.403 7.15355 56.2399 17.5109 62.7749V0.137695ZM50.679 30.9631C50.1858 30.7165 50.0625 30.2233 50.1858 29.9767L51.4188 25.5378L47.1033 26.4009C46.98 26.4009 46.4868 26.4009 46.3635 25.5378L45.9936 24.0582L43.0343 27.5107C43.0343 27.5107 41.0615 29.6068 41.678 26.4009L42.911 19.6194L40.5683 20.8524C40.445 20.8524 39.9518 20.9757 39.3353 19.7427L37.2391 15.4271L35.0197 19.4961C34.4032 20.7291 33.91 20.6058 33.7867 20.6058L31.444 19.3728L32.677 26.1543C33.2935 29.3602 31.3207 27.2641 31.3207 27.2641L28.3614 23.8116L27.9915 25.2912C27.7449 26.1543 27.375 26.1543 27.2517 26.1543L22.9362 25.2912L24.1692 29.7301C24.1692 30.1 24.1692 30.4699 23.676 30.7165L22.443 31.4563C22.443 31.4563 27.375 35.402 28.9779 36.7583C29.3478 37.0049 30.0877 37.7447 29.841 38.6078L29.2245 40.334L36.0061 39.3476C36.376 39.3476 37.1158 39.3476 36.9925 40.4573L36.6226 47.4855H37.8557L37.4858 40.4573C37.4858 39.3476 38.2256 39.3476 38.4722 39.3476L45.2538 40.334L44.6372 38.6078C44.3906 37.7447 45.1305 37.0049 45.5004 36.7583C47.1033 35.402 52.0353 31.4563 52.0353 31.4563L50.679 30.9631Z" fill="#ED4C5C"/>
</svg>
