<svg width="73" height="72" viewBox="0 0 73 72" fill="none" xmlns="http://www.w3.org/2000/svg">
<path d="M0.826172 0H72.5653V71.7391H0.826172V0Z" fill="#0052B4"/>
<path d="M36.6956 14.0396L37.8586 17.6125H41.5996L38.5591 19.8123L39.7221 23.3993L36.6816 21.1854L33.6411 23.3993L34.804 19.8123L31.7635 17.6125H35.5186L36.6956 14.0396ZM21.2549 20.4288L24.6176 22.1382L27.2658 19.476L26.6773 23.1891L30.0261 24.8985L26.313 25.487L25.7246 29.2L24.0151 25.8373L20.3021 26.4398L22.9643 23.7776L21.2549 20.4288ZM14.8656 35.8695L18.4385 34.7066V30.9655L20.6384 34.006L24.2253 32.8431L22.0115 35.8836L24.2253 38.9241L20.6384 37.7611L18.4385 40.8016V37.0465L14.8656 35.8695ZM21.2549 51.3103L22.9643 47.9475L20.3021 45.2993L24.0151 45.8878L25.7246 42.539L26.313 46.2521L30.0261 46.8406L26.6633 48.55L27.2658 52.2631L24.6036 49.6009L21.2549 51.3103ZM36.6956 57.6995L35.5326 54.1266H31.7916L34.8321 51.9268L33.6691 48.3398L36.7096 50.5536L39.7501 48.3398L38.5872 51.9268L41.6277 54.1266H37.8726L36.6956 57.6995ZM52.1363 51.3103L48.7736 49.6009L46.1254 52.2631L46.7139 48.55L43.3651 46.8406L47.0782 46.2521L47.6666 42.539L49.376 45.9018L53.0891 45.2993L50.4269 47.9615L52.1363 51.3103ZM58.5256 35.8695L54.9526 37.0325V40.7736L52.7528 37.7331L49.1659 38.896L51.3797 35.8555L49.1659 32.815L52.7528 33.978L54.9526 30.9375V34.6926L58.5256 35.8695ZM52.1363 20.4288L50.4269 23.7916L53.0891 26.4398L49.376 25.8513L47.6666 29.2L47.0782 25.487L43.3651 24.8985L46.7279 23.1891L46.1254 19.476L48.7876 22.1382L52.1363 20.4288Z" fill="#FFDA44"/>
</svg>
