<svg width="75" height="74" viewBox="0 0 75 74" fill="none" xmlns="http://www.w3.org/2000/svg">
<path d="M0.869629 0L2.01297 3.14419L0.869629 6.4313V9.71841L5.443 17.436L0.869629 25.1535V29.7269L5.443 36.587L0.869629 43.447V48.0204L5.443 55.7379L0.869629 63.4555V73.1739L4.01382 72.0306L7.30093 73.1739H10.588L18.3056 68.6005L26.0232 73.1739H30.5965L37.4566 68.6005L44.3166 73.1739H48.89L56.6076 68.6005L64.3251 73.1739H74.0435L72.9002 70.0297L74.0435 66.7426V63.4555L69.4702 55.7379L74.0435 48.0204V43.447L69.4702 36.587L74.0435 29.7269V25.1535L69.4702 17.436L74.0435 9.71841V0L70.8994 1.14334L67.6122 0H64.3251L56.6076 4.57337L48.89 0H44.3166L37.4566 4.57337L30.5965 0H26.0232L18.3056 4.57337L10.588 0H0.869629Z" fill="#EEEEEE"/>
<path d="M48.89 0V15.4351L64.3251 0H48.89ZM74.0435 9.71841L58.6084 25.1535H74.0435V9.71841ZM0.869629 25.1535H16.3048L0.869629 9.71841V25.1535ZM10.588 0L26.0232 15.4351V0H10.588ZM26.0232 73.1739V57.7388L10.588 73.1739H26.0232ZM0.869629 63.4555L16.3048 48.0204H0.869629V63.4555ZM74.0435 48.0204H58.6084L74.0435 63.4555V48.0204ZM64.3251 73.1739L48.89 57.7388V73.1739H64.3251Z" fill="#0052B4"/>
<path d="M0.869629 0V6.4313L19.5919 25.1535H26.0232L0.869629 0ZM30.5965 0V29.7269H0.869629V43.447H30.5965V73.1739H44.3166V43.447H74.0435V29.7269H44.3166V0H30.5965ZM67.6122 0L48.89 18.7222V25.1535L74.0435 0H67.6122ZM26.0232 48.0204L0.869629 73.1739H7.30093L26.0232 54.4517V48.0204ZM48.89 48.0204L74.0435 73.1739V66.7426L55.3213 48.0204H48.89Z" fill="#D80027"/>
</svg>
