<svg width="73" height="72" viewBox="0 0 73 72" fill="none" xmlns="http://www.w3.org/2000/svg">
<path d="M36.3044 0H72.1739V8.96739L67.6902 13.4511L72.1739 17.9348V26.9022L67.6902 31.3859L72.1739 35.8696V44.837L67.6902 49.3207L72.1739 53.8043V62.7717L36.3044 67.2554L0.434814 62.7717V53.8043L4.91851 49.3207L0.434814 44.837V35.8696L36.3044 0Z" fill="#EEEEEE"/>
<path d="M31.8207 8.96729H72.1739V17.9347H31.8207V8.96729ZM31.8207 26.9021H72.1739V35.8695H36.3044L31.8207 26.9021ZM0.434814 44.8368H72.1739V53.8042H0.434814V44.8368ZM0.434814 62.7716H72.1739V71.739H0.434814V62.7716Z" fill="#D80027"/>
<path d="M0.434814 0H36.3044V35.8696H0.434814V0Z" fill="#0052B4"/>
<path d="M26.6364 34.0479L34.623 28.3031H24.8149L32.8015 34.0479L29.719 24.6601L26.6364 34.0479ZM15.2871 34.0479L23.2736 28.3031H13.4656L21.4521 34.0479L18.3696 24.6601L15.2871 34.0479ZM3.93771 34.0479L11.9243 28.3031H2.11621L10.1028 34.0479L7.02025 24.6601L3.93771 34.0479ZM26.6364 22.6985L34.623 16.9538H24.8149L32.8015 22.6985L29.719 13.3108L26.6364 22.6985ZM15.2871 22.6985L23.2736 16.9538H13.4656L21.4521 22.6985L18.3696 13.3108L15.2871 22.6985ZM3.93771 22.6985L11.9243 16.9538H2.11621L10.1028 22.6985L7.02025 13.3108L3.93771 22.6985ZM26.6364 11.209L34.623 5.46429H24.8149L32.8015 11.209L29.719 1.82129L26.6364 11.209ZM15.2871 11.209L23.2736 5.46429H13.4656L21.4521 11.209L18.3696 1.82129L15.2871 11.209ZM3.93771 11.209L11.9243 5.46429H2.11621L10.1028 11.209L7.02025 1.82129L3.93771 11.209Z" fill="#EEEEEE"/>
</svg>
